<?xml version="1.0" standalone="no"?>
<!DOCTYPE svg PUBLIC "-//W3C//DTD SVG 20010904//EN"
 "http://www.w3.org/TR/2001/REC-SVG-20010904/DTD/svg10.dtd">
<svg version="1.0" xmlns="http://www.w3.org/2000/svg"
 width="320.000000pt" height="320.000000pt" viewBox="0 0 320.000000 320.000000"
 preserveAspectRatio="xMidYMid meet">
<metadata>
Created by potrace 1.11, written by Peter Selinger 2001-2013
</metadata>
<g transform="translate(0.000000,320.000000) scale(0.100000,-0.100000)"
fill="#000000" stroke="none">
<path d="M1269 2359 c-143 -20 -274 -124 -320 -253 -14 -38 -14 -34 -19 95
l-5 134 -107 3 -108 3 0 -311 0 -310 -185 0 -185 0 -2 308 -3 307 -105 0 -105
0 0 -345 c0 -319 1 -345 17 -348 17 -3 18 19 20 325 l3 328 62 3 63 3 2 -308
3 -308 228 -3 227 -2 0 310 0 310 65 0 65 0 2 -327 c3 -320 3 -328 23 -328 19
0 20 8 23 110 l3 110 19 -42 c26 -59 65 -105 137 -164 69 -56 219 -149 240
-149 25 0 13 36 -19 55 -97 56 -202 133 -248 181 -67 71 -93 130 -93 214 0
330 411 484 637 239 56 -61 96 -143 96 -200 l0 -30 -66 3 -67 3 -12 43 c-17
58 -57 108 -108 134 -59 31 -165 31 -224 0 -124 -65 -156 -216 -67 -320 36
-43 147 -122 170 -122 8 0 14 8 14 18 0 11 -25 34 -65 60 -94 62 -120 100
-120 176 0 48 5 68 23 94 34 46 90 72 158 72 99 0 166 -56 182 -152 l8 -43
112 -3 112 -3 0 38 c0 21 -7 63 -15 93 -8 30 -15 56 -15 58 0 1 61 2 135 2
l135 0 0 -631 0 -630 42 3 c48 3 61 24 24 38 l-26 9 -2 628 -3 628 -143 3
-143 3 3 62 3 62 165 5 c138 4 165 7 165 20 0 13 -29 15 -187 18 l-188 2 0
-92 -1 -93 -21 30 c-95 131 -250 197 -409 174z"/>
<path d="M2125 2330 c-15 -25 13 -30 171 -30 l164 0 0 -65 0 -64 -142 -3 -143
-3 -3 -632 -2 -632 -23 -3 c-41 -6 -26 -33 21 -36 l42 -3 0 630 0 630 143 3
142 3 3 108 3 107 -185 0 c-112 0 -187 -4 -191 -10z"/>
<path d="M1375 1700 c-10 -16 -2 -23 90 -79 114 -69 207 -158 242 -229 23 -48
28 -69 27 -132 -1 -98 -30 -173 -94 -243 -147 -161 -390 -167 -543 -15 -50 50
-100 145 -111 211 l-7 37 76 0 c65 0 75 -2 75 -17 1 -30 35 -96 66 -127 83
-82 228 -89 319 -14 52 44 75 95 75 171 0 83 -33 137 -125 202 -60 43 -68 46
-82 32 -14 -13 -10 -19 39 -55 104 -77 139 -137 124 -214 -25 -134 -200 -191
-307 -101 -36 31 -68 94 -69 135 0 35 -18 40 -135 36 l-90 -3 2 -67 c4 -203
195 -378 412 -378 272 0 466 237 410 500 -22 105 -118 209 -289 315 -76 46
-94 52 -105 35z"/>
<path d="M120 1225 l0 -366 108 3 107 3 3 318 2 317 185 0 185 0 0 -320 0
-321 108 3 107 3 0 360 c0 353 0 360 -20 360 -20 0 -20 -8 -23 -342 l-2 -343
-65 0 -65 0 -2 323 -3 322 -214 3 c-149 2 -218 -1 -227 -9 -11 -9 -14 -71 -14
-326 l0 -314 -62 3 -63 3 -3 343 c-2 334 -3 342 -22 342 -20 0 -20 -7 -20
-365z"/>
<path d="M2233 1284 c-4 -11 51 -72 198 -220 112 -112 211 -204 219 -204 21 0
420 401 420 423 0 16 -15 17 -197 15 -168 -3 -198 -5 -198 -18 0 -13 25 -15
158 -18 86 -1 157 -6 157 -10 0 -4 -76 -83 -169 -176 l-169 -168 -171 167
c-94 92 -171 172 -171 176 0 5 71 10 158 11 132 3 157 5 157 18 0 13 -29 15
-193 18 -170 2 -193 1 -199 -14z"/>
</g>
</svg>
